<svg width="83" height="82" viewBox="0 0 83 82" fill="none" xmlns="http://www.w3.org/2000/svg">
<g clip-path="url(#clip0_1458_9988)">
<path d="M58.4772 15.8416H56.0249L53.7612 10.0643C52.8181 8.01433 50.7431 6.52344 48.4794 6.52344H34.709C32.4453 6.52344 30.3703 7.82791 29.4272 10.0643L27.1635 15.8416H24.5225C23.3907 15.8416 22.6362 16.5872 22.6362 17.7052V19.5688H33.9544V17.7052C33.9544 16.587 33.1998 15.8416 32.0681 15.8416H31.1249L32.8227 11.369C33.1999 10.6234 33.7659 10.2508 34.5203 10.2508H48.2907C49.0453 10.2508 49.7998 10.6234 49.9885 11.369L51.6862 15.8416H50.9316C49.7998 15.8416 49.0453 16.5872 49.0453 17.7052V19.5688H60.3635V17.7052C60.3636 16.5872 59.609 15.8416 58.4772 15.8416Z" fill="#9BA7AF"/>
<path d="M77.3409 75.4773H5.659C3.584 75.4773 1.88623 73.8 1.88623 71.75V30.75H81.1135V71.75C81.1136 73.8 79.4159 75.4773 77.3409 75.4773Z" fill="#B06328"/>
<path d="M77.3409 39.3244L49.0455 45.2879C48.8568 44.3562 48.1023 43.7971 47.1592 43.7971H39.6138C38.4819 43.7971 37.7275 44.5426 37.7275 45.6606H35.8412L3.01808 38.7653C2.64085 38.7653 2.26346 38.5788 1.88623 38.3926V40.2562C2.26346 40.4426 2.64085 40.6288 3.01808 40.6288L35.8409 47.5244H37.7272V53.1153C37.7272 54.2335 38.4818 54.9788 39.6135 54.9788H45.2725C47.3475 54.9788 49.0453 53.3015 49.0453 51.2515V50.8788C49.0453 48.6424 50.5544 46.7788 52.8181 46.2197L71.6818 42.3062C74.6999 41.747 77.3409 43.9835 77.3409 46.7788V69.7017C77.3409 70.8199 76.5862 71.5653 75.4545 71.5653H5.659C3.20677 71.5653 3.01808 75.2926 5.47031 75.2926H77.1522C79.2272 75.2926 80.9249 73.6153 80.9249 71.5653V38.3926L77.3409 39.3244Z" fill="#A35425"/>
<path d="M1.88623 71.751V66.1602H7.54531C9.62031 66.1602 11.3181 67.8375 11.3181 69.8875V75.4784H5.659C3.584 75.4784 1.88623 73.801 1.88623 71.751Z" fill="#F6B545"/>
<path d="M5.6589 71.75C3.20667 71.75 3.01797 75.2909 5.4702 75.4773H11.318V71.75H5.6589Z" fill="#F19920"/>
<path d="M77.3407 75.4784H71.6816V69.8875C71.6816 67.8375 73.3794 66.1602 75.4544 66.1602H81.1135V71.751C81.1135 73.801 79.4157 75.4784 77.3407 75.4784Z" fill="#F6B545"/>
<path d="M77.3407 66.1602V69.8875C77.3407 71.0057 76.5861 71.751 75.4544 71.751H71.6816V75.4784H77.3407C79.4157 75.4784 81.1135 73.801 81.1135 71.751V66.1602H77.3407Z" fill="#F19920"/>
<path d="M8.48887 69.887H4.7161C4.15018 69.887 3.77295 69.5143 3.77295 68.9552C3.77295 68.3961 4.15018 68.0234 4.7161 68.0234H8.48887C9.0548 68.0234 9.43202 68.3961 9.43202 68.9552C9.43202 69.5142 9.0548 69.887 8.48887 69.887Z" fill="#FFCB5B"/>
<path d="M79.2272 19.5684H3.77277C1.69777 19.5684 0 21.2457 0 23.2957V35.223C0 36.9001 1.32038 38.5775 3.01815 38.9501L35.8409 45.6593H47.1591L79.9818 38.7637C81.6796 38.391 83 36.9002 83 35.0366V23.1093C83 21.2457 81.3022 19.5684 79.2272 19.5684Z" fill="#C97629"/>
<path d="M45.273 53.1152H37.7276C36.5958 53.1152 35.8413 52.3697 35.8413 51.2516V43.7972C35.8413 42.679 36.5959 41.9336 37.7276 41.9336H45.273C46.4048 41.9336 47.1593 42.6791 47.1593 43.7972V51.2516C47.1593 52.3699 46.4048 53.1152 45.273 53.1152Z" fill="#F6B545"/>
<path d="M45.2727 41.9316V51.2499H35.8408C35.8408 52.3681 36.5954 53.1134 37.7271 53.1134H45.2725C46.4044 53.1134 47.1588 52.3679 47.1588 51.2499V43.7954C47.159 42.6772 46.4045 41.9316 45.2727 41.9316Z" fill="#F19920"/>
<path d="M42.443 45.6605H38.6702C38.1043 45.6605 37.7271 45.2878 37.7271 44.7287C37.7271 44.1696 38.1043 43.7969 38.6702 43.7969H42.443C43.0089 43.7969 43.3861 44.1696 43.3861 44.7287C43.3861 45.2878 43.0089 45.6605 42.443 45.6605Z" fill="#FFCB5B"/>
<path d="M4.7161 21.4316H14.1479C14.7139 21.4316 15.0911 21.8043 15.0911 22.3634C15.0911 22.9225 14.7139 23.2952 14.1479 23.2952H4.7161C4.15018 23.2952 3.77295 22.9225 3.77295 22.3634C3.77295 21.8043 4.15018 21.4316 4.7161 21.4316Z" fill="#DA8C36"/>
<path d="M5.65925 46.5919V55.9102C5.65925 56.4693 5.28203 56.8419 4.7161 56.8419C4.15018 56.8419 3.77295 56.4693 3.77295 55.9102V46.5919C3.77295 46.0328 4.15018 45.6602 4.7161 45.6602C5.28203 45.6602 5.65925 46.0328 5.65925 46.5919Z" fill="#C97629"/>
<path d="M17.9202 21.4316H36.7839C37.3498 21.4316 37.7271 21.8043 37.7271 22.3634C37.7271 22.9225 37.3498 23.2952 36.7839 23.2952H17.9202C17.3543 23.2952 16.9771 22.9225 16.9771 22.3634C16.9771 21.8043 17.3544 21.4316 17.9202 21.4316Z" fill="#DA8C36"/>
<path d="M51.8749 9.31809L54.5158 15.8408H56.0249L53.7612 10.0635C53.0066 8.38614 51.4975 7.08167 49.7999 6.70898C50.5545 7.26809 51.4977 8.19988 51.8749 9.31809ZM42.6318 8.3863H34.709C33.1999 8.3863 31.6908 9.31809 31.1249 10.809L29.0499 15.8408H30.9362L32.634 11.3681C33.0112 10.6226 33.5772 10.2499 34.3318 10.2499H47.159C46.0272 9.13167 44.3295 8.3863 42.6318 8.3863ZM22.6362 17.7044H33.9544V19.5679H22.6362V17.7044ZM49.0453 17.7044H60.3635V19.5679H49.0453V17.7044Z" fill="#72818B"/>
</g>
<defs>
<clipPath id="clip0_1458_9988">
<rect width="83" height="82" fill="white"/>
</clipPath>
</defs>
</svg>
