<svg width="46" height="46" viewBox="0 0 46 46" fill="none" xmlns="http://www.w3.org/2000/svg">
<path d="M12.4587 38.3346C9.55171 38.3346 7.06835 37.3284 5.00858 35.3159C2.9488 33.3034 1.91827 30.8437 1.91699 27.9367C1.91699 25.4451 2.66769 23.2249 4.16908 21.2763C5.67046 19.3277 7.63505 18.0819 10.0628 17.5388C10.8614 14.5999 12.4587 12.2201 14.8545 10.3992C17.2503 8.57839 19.9656 7.66797 23.0003 7.66797C26.7378 7.66797 29.9086 8.97002 32.5127 11.5741C35.1169 14.1782 36.4183 17.3484 36.417 21.0846C38.6212 21.3402 40.4503 22.2909 41.9044 23.9366C43.3585 25.5824 44.0849 27.5067 44.0837 29.7096C44.0837 32.1055 43.2454 34.1422 41.569 35.82C39.8925 37.4977 37.8558 38.3359 35.4587 38.3346H12.4587Z" fill="#FE5F50"/>
</svg>
